<svg width="500" height="500" xmlns="http://www.w3.org/2000/svg"><path d="M125,275 L125,276 L124,277 L106,277 L106,334 L107,335 L107,336 L108,337 L111,337 L112,338 L135,338 L136,337 L139,337 L139,336 L140,335 L140,277 L141,276 L168,276 L169,277 L169,335 L170,336 L170,337 L171,337 L172,338 L173,337 L174,338 L175,337 L176,338 L199,338 L200,337 L201,337 L202,336 L202,334 L203,333 L203,277 L204,276 L231,276 L232,277 L231,278 L231,333 L232,334 L232,336 L233,337 L235,337 L236,338 L237,337 L238,337 L239,338 L255,338 L256,337 L258,337 L259,338 L260,338 L261,337 L263,337 L265,335 L265,277 L266,276 L296,276 L297,277 L297,335 L298,336 L298,337 L301,337 L302,338 L303,337 L304,338 L327,338 L328,337 L329,337 L330,336 L330,334 L331,333 L331,277 L332,276 L354,276 L356,278 L356,279 L357,280 L357,281 L358,282 L358,283 L359,284 L359,287 L360,288 L360,293 L361,294 L361,334 L362,335 L362,336 L363,337 L366,337 L367,338 L383,338 L384,337 L393,337 L394,336 L394,335 L395,334 L395,293 L394,292 L394,286 L393,285 L393,281 L392,280 L392,277 L375,277 L374,276 L374,275Z" /><path d="M407,242 L405,244 L405,255 L407,257 L410,257 L411,256 L412,256 L412,255 L413,254 L413,245 L412,244 L412,243 L411,243 L410,242Z" /><path d="M407,245 L408,244 L409,244 L410,245 L410,254 L409,255 L408,255 L407,254Z" /><path d="M382,242 L382,257 L384,257 L385,256 L385,251 L386,250 L387,250 L388,251 L388,257 L390,257 L390,242 L388,242 L388,247 L387,248 L386,248 L385,247 L385,243 L384,242Z" /><path d="M362,242 L360,244 L360,247 L366,253 L364,255 L363,255 L362,254 L362,253 L360,253 L360,255 L362,257 L366,257 L368,255 L368,252 L362,246 L362,245 L363,244 L364,244 L365,245 L365,246 L368,246 L368,245 L367,244 L367,243 L366,242Z" /><path d="M338,242 L338,257 L340,257 L340,252 L341,251 L343,253 L343,257 L346,257 L346,254 L345,253 L345,252 L344,251 L344,250 L346,248 L346,245 L345,244 L345,243 L344,243 L343,242Z" /><path d="M340,245 L341,244 L342,244 L343,245 L343,248 L341,250 L340,249Z" /><path d="M317,242 L316,243 L316,244 L315,245 L315,254 L316,255 L316,256 L317,256 L318,257 L321,257 L323,255 L323,244 L321,242Z" /><path d="M318,245 L319,244 L320,244 L321,245 L321,254 L320,255 L319,255 L318,254Z" /><path d="M293,242 L293,257 L295,257 L295,252 L296,251 L297,251 L299,253 L299,257 L301,257 L301,252 L299,250 L299,249 L301,247 L301,242 L299,242 L299,245 L298,246 L298,247 L297,248 L296,248 L295,247 L295,242Z" /><path d="M272,242 L271,243 L271,244 L270,245 L270,257 L272,257 L272,254 L273,253 L275,253 L276,254 L276,257 L278,257 L278,244 L276,242Z" /><path d="M274,244 L276,246 L276,250 L275,251 L273,251 L272,250 L272,249 L273,248 L272,247 L272,246Z" /><path d="M248,242 L247,243 L247,256 L248,257 L250,257 L250,251 L251,250 L252,250 L253,251 L253,257 L255,257 L256,256 L256,245 L255,244 L256,243 L255,242 L253,242 L253,247 L252,248 L251,248 L250,247 L250,242Z" /><path d="M227,242 L225,244 L225,255 L227,257 L231,257 L233,255 L233,244 L231,242Z" /><path d="M229,244 L231,246 L231,253 L229,255 L227,253 L227,246Z" /><path d="M199,242 L197,244 L197,257 L199,257 L199,246 L201,244 L202,245 L202,246 L203,247 L202,248 L202,255 L203,256 L203,257 L205,257 L205,245 L206,244 L207,244 L208,245 L208,257 L210,257 L210,247 L211,246 L210,245 L210,244 L208,242 L205,242 L204,243 L203,243 L202,242Z" /><path d="M153,242 L151,244 L151,257 L153,257 L153,245 L154,244 L155,244 L156,245 L156,246 L157,247 L156,248 L156,256 L157,257 L159,257 L159,245 L160,244 L161,244 L162,245 L162,257 L164,257 L164,244 L162,242 L159,242 L158,243 L157,242Z" /><path d="M130,242 L128,244 L128,257 L130,257 L130,254 L131,253 L133,253 L134,254 L134,257 L136,257 L136,244 L134,242Z" /><path d="M131,245 L132,244 L133,244 L134,245 L134,250 L133,251 L131,251 L130,250 L130,249 L131,248 L130,247 L131,246Z" /><path d="M107,242 L107,257 L114,257 L114,255 L110,255 L109,254 L109,251 L110,250 L113,250 L113,248 L110,248 L109,247 L109,245 L110,244 L114,244 L114,242Z" /><path d="M86,242 L86,244 L87,244 L88,245 L88,257 L90,257 L90,248 L91,247 L91,246 L90,245 L91,244 L93,244 L93,242Z" /><path d="M146,156 L145,157 L141,157 L140,158 L138,158 L137,159 L135,159 L134,160 L133,160 L132,161 L131,161 L130,162 L129,162 L128,163 L127,163 L124,166 L123,166 L116,173 L116,174 L113,177 L113,178 L111,180 L111,181 L110,182 L110,183 L109,184 L109,186 L108,187 L108,190 L107,191 L107,195 L106,196 L106,222 L124,222 L125,223 L125,224 L374,224 L374,223 L375,222 L389,222 L389,221 L390,220 L390,217 L391,216 L391,213 L392,212 L392,207 L393,206 L393,161 L391,159 L390,159 L389,158 L364,158 L363,159 L361,159 L361,160 L360,161 L360,162 L359,163 L359,204 L358,205 L358,210 L357,211 L357,213 L356,214 L356,216 L355,217 L355,218 L353,220 L353,221 L351,223 L332,223 L331,222 L331,163 L330,162 L330,160 L328,158 L300,158 L299,159 L298,159 L298,160 L297,161 L297,222 L296,223 L266,223 L265,222 L265,195 L264,194 L264,190 L263,189 L263,187 L262,186 L262,184 L261,183 L261,182 L260,181 L260,180 L259,179 L259,178 L256,175 L256,174 L247,165 L246,165 L244,163 L243,163 L242,162 L241,162 L240,161 L239,161 L238,160 L237,160 L236,159 L234,159 L233,158 L232,158 L231,157 L227,157 L226,156 L208,156 L207,157 L204,157 L203,158 L200,158 L199,159 L198,159 L197,160 L196,160 L195,161 L193,161 L191,163 L190,163 L188,165 L187,165 L186,166 L185,166 L184,165 L183,165 L181,163 L180,163 L178,161 L177,161 L176,160 L174,160 L173,159 L172,159 L171,158 L169,158 L168,157 L164,157 L163,156Z" /><path d="M213,187 L214,186 L220,186 L221,187 L223,187 L229,193 L229,194 L230,195 L230,196 L231,197 L231,222 L230,223 L204,223 L203,222 L203,197 L204,196 L204,194 L206,192 L206,191 L208,189 L209,189 L211,187Z" /><path d="M150,187 L151,186 L157,186 L158,187 L160,187 L161,188 L162,188 L166,192 L166,193 L167,194 L167,195 L168,196 L168,199 L169,200 L169,222 L168,223 L141,223 L140,222 L140,198 L141,197 L141,195 L142,194 L142,193 L147,188 L148,188 L149,187Z" /></svg>